<svg width="49" height="48" viewBox="0 0 49 48" fill="none" xmlns="http://www.w3.org/2000/svg">
<path d="M9.49665 41.6374C8.71979 42.3953 7.48022 42.3953 6.70335 41.6374L5.46735 40.4316C4.66288 39.6467 4.66288 38.3533 5.46735 37.5684L18.9326 24.4316C19.7371 23.6467 19.7371 22.3533 18.9326 21.5684L5.46735 8.43156C4.66288 7.64672 4.66288 6.35328 5.46735 5.56844L6.70335 4.36258C7.48021 3.60467 8.71979 3.60467 9.49665 4.36258L23.1033 17.6374C23.8802 18.3953 25.1198 18.3953 25.8966 17.6374L39.5034 4.36258C40.2802 3.60467 41.5198 3.60467 42.2966 4.36258L43.5326 5.56844C44.3371 6.35328 44.3371 7.64672 43.5326 8.43156L30.0674 21.5684C29.2629 22.3533 29.2629 23.6467 30.0674 24.4316L43.5326 37.5684C44.3371 38.3533 44.3371 39.6467 43.5326 40.4316L42.2966 41.6374C41.5198 42.3953 40.2802 42.3953 39.5034 41.6374L25.8966 28.3626C25.1198 27.6047 23.8802 27.6047 23.1034 28.3626L9.49665 41.6374Z" fill="#BD0000"/>
</svg>
