<svg width="55" height="55" viewBox="0 1.5 55 55" fill="none" xmlns="http://www.w3.org/2000/svg">
<path d="M22.4052 19.5159C22.4052 19.6461 22.3857 19.7659 22.3466 19.8752C22.305 19.9846 22.249 20.0979 22.1787 20.2151L22.1279 20.301C22.0706 20.3896 22.0289 20.4625 22.0029 20.5198C21.9769 20.5771 21.9638 20.6344 21.9638 20.6917C21.9638 20.7828 21.9964 20.8518 22.0615 20.8987C22.1266 20.943 22.223 20.9651 22.3506 20.9651H22.3935V21.7971H22.2763C21.844 21.7971 21.5198 21.7281 21.3037 21.5901C21.0875 21.4495 20.9795 21.2398 20.9795 20.9612C20.9795 20.8258 20.999 20.7034 21.0381 20.594C21.0771 20.482 21.1318 20.3661 21.2021 20.2463C21.2047 20.2385 21.2086 20.232 21.2138 20.2268C21.2164 20.2216 21.219 20.2164 21.2216 20.2112C21.2269 20.2008 21.2321 20.1917 21.2373 20.1838C21.2399 20.1734 21.2451 20.1643 21.2529 20.1565C21.3076 20.0627 21.3466 19.9898 21.3701 19.9377C21.3935 19.8831 21.4052 19.8271 21.4052 19.7698C21.4052 19.6786 21.3701 19.6109 21.2998 19.5667C21.2295 19.5198 21.124 19.4963 20.9834 19.4963H20.9443V18.6643H21.0381C21.4938 18.6643 21.8362 18.7359 22.0654 18.8792C22.292 19.0198 22.4052 19.232 22.4052 19.5159ZM26.4052 19.5159C26.4052 19.6461 26.3857 19.7659 26.3466 19.8752C26.305 19.9846 26.249 20.0979 26.1787 20.2151L26.1279 20.301C26.0706 20.3896 26.0289 20.4625 26.0029 20.5198C25.9769 20.5771 25.9638 20.6344 25.9638 20.6917C25.9638 20.7828 25.9964 20.8518 26.0615 20.8987C26.1266 20.943 26.223 20.9651 26.3506 20.9651H26.3935V21.7971H26.2763C25.844 21.7971 25.5198 21.7281 25.3037 21.5901C25.0875 21.4495 24.9795 21.2398 24.9795 20.9612C24.9795 20.8258 24.999 20.7034 25.0381 20.594C25.0771 20.482 25.1318 20.3661 25.2021 20.2463C25.2047 20.2385 25.2086 20.232 25.2138 20.2268C25.2164 20.2216 25.219 20.2164 25.2216 20.2112C25.2269 20.2008 25.2321 20.1917 25.2373 20.1838C25.2399 20.1734 25.2451 20.1643 25.2529 20.1565C25.3076 20.0627 25.3466 19.9898 25.3701 19.9377C25.3935 19.8831 25.4052 19.8271 25.4052 19.7698C25.4052 19.6786 25.3701 19.6109 25.2998 19.5667C25.2295 19.5198 25.124 19.4963 24.9834 19.4963H24.9443V18.6643H25.0381C25.4938 18.6643 25.8362 18.7359 26.0654 18.8792C26.292 19.0198 26.4052 19.232 26.4052 19.5159Z" fill="white"/>
<path d="M6.83737 35.3416C6.66647 35.3416 6.50209 35.3253 6.34421 35.2927C6.18796 35.2585 6.04066 35.2089 5.90231 35.1438C5.76559 35.0787 5.64027 34.9981 5.52634 34.9021L5.8364 34.4358C5.97311 34.5514 6.12611 34.6392 6.29538 34.6995C6.46628 34.7581 6.64694 34.7874 6.83737 34.7874C7.075 34.7874 7.25892 34.745 7.38913 34.6604C7.52097 34.5758 7.58688 34.4561 7.58688 34.3015V34.2991C7.58688 34.19 7.55759 34.1038 7.49899 34.0403C7.4404 33.9752 7.3639 33.928 7.2695 33.8987C7.1751 33.8678 7.05384 33.8393 6.90573 33.8132C6.90085 33.8116 6.89597 33.8108 6.89108 33.8108C6.8862 33.8108 6.88132 33.81 6.87643 33.8083L6.83249 33.801C6.59486 33.762 6.39955 33.7156 6.24655 33.6619C6.09356 33.6082 5.96335 33.5121 5.85593 33.3738C5.7485 33.2354 5.69479 33.0393 5.69479 32.7854V32.783C5.69479 32.5583 5.74525 32.3663 5.84616 32.2068C5.94707 32.0473 6.09356 31.926 6.28561 31.843C6.47767 31.76 6.70879 31.7185 6.97897 31.7185C7.10593 31.7185 7.23288 31.7332 7.35983 31.7625C7.48841 31.7901 7.61374 31.8316 7.73581 31.887C7.85951 31.9407 7.97914 32.0082 8.0947 32.0896L7.81149 32.5706C7.67477 32.4729 7.53561 32.3988 7.39401 32.3484C7.25241 32.2979 7.11406 32.2727 6.97897 32.2727C6.75436 32.2727 6.58021 32.3142 6.45651 32.3972C6.33444 32.4786 6.27341 32.5942 6.27341 32.7439V32.7463C6.27341 32.8586 6.30515 32.9473 6.36862 33.0125C6.4321 33.0776 6.51104 33.1256 6.60544 33.1565C6.70147 33.1858 6.83493 33.2175 7.00583 33.2517C7.01234 33.2533 7.01804 33.255 7.02292 33.2566C7.02943 33.2566 7.03594 33.2574 7.04245 33.259C7.05059 33.2607 7.05954 33.2623 7.06931 33.2639C7.07907 33.2655 7.08802 33.2672 7.09616 33.2688C7.31589 33.3127 7.49899 33.3656 7.64548 33.4275C7.79359 33.4893 7.91729 33.5886 8.01657 33.7253C8.11585 33.8621 8.1655 34.0484 8.1655 34.2844V34.2893C8.1655 34.5107 8.11341 34.7003 8.00925 34.8582C7.90508 35.016 7.75371 35.1365 7.55515 35.2195C7.35658 35.3009 7.11732 35.3416 6.83737 35.3416ZM10.1919 33.6985C10.1919 33.5569 10.1495 33.447 10.0649 33.3689C9.9819 33.2908 9.8639 33.2517 9.71091 33.2517C9.61325 33.2517 9.51722 33.2672 9.42282 33.2981C9.32842 33.329 9.24378 33.3722 9.16891 33.4275L8.78073 33.1003C8.88002 32.9848 9.01022 32.8953 9.17136 32.8318C9.33249 32.7667 9.51153 32.7341 9.70847 32.7341C9.92331 32.7341 10.1072 32.7716 10.2602 32.8464C10.4132 32.9197 10.5296 33.0271 10.6093 33.1687C10.6907 33.3087 10.7314 33.4779 10.7314 33.6765V35.3049H10.1919V33.6985ZM9.5278 35.3416C9.23646 35.3416 9.01836 35.2773 8.8735 35.1487C8.72865 35.0185 8.65622 34.8215 8.65622 34.5579C8.65622 34.3072 8.72946 34.1192 8.87595 33.9939C9.02243 33.8686 9.24216 33.8059 9.53513 33.8059H10.2138L10.248 34.26H9.53757C9.42201 34.26 9.33493 34.2844 9.27634 34.3333C9.21937 34.3821 9.19089 34.4569 9.19089 34.5579C9.19089 34.6637 9.22832 34.7426 9.30319 34.7947C9.37806 34.8451 9.49118 34.8704 9.64255 34.8704C9.82809 34.8704 9.96563 34.85 10.0551 34.8093C10.1463 34.7686 10.1919 34.7052 10.1919 34.6189L10.2431 34.9802C10.2155 35.06 10.1666 35.1267 10.0966 35.1804C10.0283 35.2341 9.94528 35.2748 9.84763 35.3025C9.74997 35.3285 9.64336 35.3416 9.5278 35.3416ZM12.8335 32.7708H13.4267L12.4746 35.3049H12.0498L11.0976 32.7708H11.6909L12.2622 34.47L12.8335 32.7708ZM14.8794 35.3416C14.6401 35.3416 14.4358 35.2976 14.2666 35.2097C14.0973 35.1218 13.9679 34.9932 13.8784 34.824C13.7889 34.6531 13.7441 34.4472 13.7441 34.2063V33.9207C13.7441 33.67 13.7864 33.456 13.8711 33.2786C13.9573 33.1012 14.0818 32.9661 14.2446 32.8733C14.409 32.7805 14.6059 32.7341 14.8354 32.7341C15.0519 32.7341 15.2366 32.7887 15.3896 32.8977C15.5442 33.0051 15.6614 33.1614 15.7412 33.3665C15.8226 33.5715 15.8633 33.8189 15.8633 34.1086V34.2747H14.1421V33.8474H15.3213L15.3188 33.8206C15.3025 33.6431 15.2529 33.5056 15.1699 33.408C15.0869 33.3103 14.9754 33.2615 14.8354 33.2615C14.6596 33.2615 14.5237 33.3168 14.4277 33.4275C14.3317 33.5365 14.2837 33.692 14.2837 33.8938V34.2161C14.2837 34.4081 14.3357 34.5562 14.4399 34.6604C14.5441 34.7629 14.6906 34.8142 14.8794 34.8142C14.9754 34.8142 15.0698 34.7963 15.1626 34.7605C15.257 34.7231 15.3416 34.6718 15.4165 34.6067L15.7973 34.9631C15.6688 35.0836 15.5239 35.1772 15.3628 35.2439C15.2033 35.309 15.0421 35.3416 14.8794 35.3416ZM18.0361 35.3171C17.8229 35.3171 17.6666 35.261 17.5674 35.1487C17.4681 35.0347 17.4184 34.8671 17.4184 34.6458V32.0334H18.0019V34.5652C18.0019 34.627 18.0141 34.675 18.0385 34.7092C18.063 34.7418 18.0988 34.7581 18.146 34.7581H18.3486V35.3171H18.0361ZM17.1572 32.7708H18.3486V33.281H17.1572V32.7708ZM18.9663 31.7551H19.5473V32.3386H18.9663V31.7551ZM18.9663 32.7708H19.5473V35.3049H18.9663V32.7708ZM23.229 33.8059C23.229 33.6415 23.1883 33.5154 23.1069 33.4275C23.0255 33.338 22.91 33.2932 22.7602 33.2932C22.6186 33.2932 22.5088 33.3363 22.4306 33.4226C22.3541 33.5072 22.3159 33.6285 22.3159 33.7864L22.2036 33.2493C22.2833 33.0849 22.3875 32.9579 22.5161 32.8684C22.6463 32.7789 22.7903 32.7341 22.9482 32.7341C23.1305 32.7341 23.2859 32.7756 23.4145 32.8586C23.5447 32.9417 23.6432 33.0637 23.7099 33.2249C23.7783 33.3844 23.8125 33.5772 23.8125 33.8035V35.3049H23.229V33.8059ZM20.2383 32.7708H20.8217V35.3049H20.2383V32.7708ZM21.7348 33.8059C21.7348 33.6415 21.6941 33.5154 21.6128 33.4275C21.533 33.338 21.4191 33.2932 21.271 33.2932C21.1277 33.2932 21.0171 33.3323 20.9389 33.4104C20.8608 33.4869 20.8217 33.5959 20.8217 33.7375L20.7705 33.2126C20.847 33.058 20.9446 32.94 21.0634 32.8586C21.1823 32.7756 21.3182 32.7341 21.4712 32.7341C21.6486 32.7341 21.8008 32.7756 21.9277 32.8586C22.0547 32.9417 22.1507 33.0637 22.2158 33.2249C22.2825 33.3844 22.3159 33.5772 22.3159 33.8035V35.3049H21.7348V33.8059ZM25.5825 35.3416C25.3432 35.3416 25.139 35.2976 24.9697 35.2097C24.8004 35.1218 24.671 34.9932 24.5815 34.824C24.492 34.6531 24.4472 34.4472 24.4472 34.2063V33.9207C24.4472 33.67 24.4896 33.456 24.5742 33.2786C24.6605 33.1012 24.785 32.9661 24.9477 32.8733C25.1121 32.7805 25.3091 32.7341 25.5385 32.7341C25.755 32.7341 25.9397 32.7887 26.0927 32.8977C26.2474 33.0051 26.3646 33.1614 26.4443 33.3665C26.5257 33.5715 26.5664 33.8189 26.5664 34.1086V34.2747H24.8452V33.8474H26.0244L26.0219 33.8206C26.0057 33.6431 25.956 33.5056 25.873 33.408C25.79 33.3103 25.6785 33.2615 25.5385 33.2615C25.3628 33.2615 25.2269 33.3168 25.1308 33.4275C25.0348 33.5365 24.9868 33.692 24.9868 33.8938V34.2161C24.9868 34.4081 25.0389 34.5562 25.143 34.6604C25.2472 34.7629 25.3937 34.8142 25.5825 34.8142C25.6785 34.8142 25.7729 34.7963 25.8657 34.7605C25.9601 34.7231 26.0447 34.6718 26.1196 34.6067L26.5005 34.9631C26.3719 35.0836 26.227 35.1772 26.0659 35.2439C25.9064 35.309 25.7452 35.3416 25.5825 35.3416ZM27.0132 34.7092H27.5942V35.3049L27.0132 35.7981V34.7092ZM30.0234 35.3416C29.872 35.3416 29.728 35.3277 29.5913 35.3C29.4546 35.2708 29.326 35.2284 29.2055 35.1731C29.0867 35.1178 28.9793 35.0502 28.8833 34.9705L29.2373 34.531C29.3659 34.6222 29.4969 34.6913 29.6303 34.7385C29.7654 34.7857 29.8965 34.8093 30.0234 34.8093C30.2008 34.8093 30.3351 34.7857 30.4262 34.7385C30.519 34.6897 30.5654 34.6197 30.5654 34.5286C30.5654 34.4586 30.5426 34.4065 30.497 34.3723C30.4515 34.3365 30.3937 34.3121 30.3237 34.2991C30.2553 34.2861 30.1585 34.2738 30.0332 34.2625C30.012 34.2608 29.99 34.2592 29.9673 34.2576C29.9445 34.2559 29.9225 34.2535 29.9013 34.2502C29.8948 34.2502 29.8883 34.2502 29.8818 34.2502C29.8753 34.2486 29.8688 34.2478 29.8623 34.2478C29.6849 34.2283 29.5392 34.2014 29.4253 34.1672C29.3113 34.1314 29.2153 34.0639 29.1372 33.9646C29.0607 33.8653 29.0224 33.7229 29.0224 33.5374C29.0224 33.3632 29.0607 33.2167 29.1372 33.0979C29.2153 32.9775 29.3292 32.8871 29.479 32.8269C29.6287 32.7651 29.8126 32.7341 30.0307 32.7341C30.1609 32.7341 30.2879 32.7472 30.4116 32.7732C30.5353 32.7976 30.6533 32.8342 30.7656 32.8831C30.8795 32.9303 30.9869 32.9897 31.0879 33.0613L30.7387 33.4861C30.6199 33.4145 30.4995 33.3599 30.3774 33.3225C30.257 33.2851 30.1398 33.2664 30.0258 33.2664C29.8729 33.2664 29.7565 33.2883 29.6767 33.3323C29.597 33.3762 29.5571 33.4413 29.5571 33.5276C29.5571 33.5829 29.5791 33.6252 29.623 33.6545C29.667 33.6838 29.7215 33.7042 29.7866 33.7156C29.8533 33.7253 29.9494 33.7359 30.0747 33.7473C30.0877 33.7489 30.0999 33.7506 30.1113 33.7522C30.1243 33.7522 30.1373 33.753 30.1504 33.7546C30.1552 33.7546 30.1609 33.7546 30.1674 33.7546C30.174 33.7546 30.1805 33.7555 30.187 33.7571C30.3742 33.775 30.5296 33.8018 30.6533 33.8376C30.777 33.8735 30.882 33.9451 30.9682 34.0525C31.0545 34.1583 31.0976 34.3129 31.0976 34.5164C31.0976 34.6954 31.0569 34.8468 30.9756 34.9705C30.8942 35.0925 30.7729 35.1853 30.6118 35.2488C30.4523 35.3106 30.2562 35.3416 30.0234 35.3416ZM31.3906 32.7708H31.9716L32.4209 34.4578L33.0044 32.7708H33.3755L33.959 34.4578L34.4082 32.7708H34.9892L34.208 35.3049H33.771L33.1899 33.6033L32.6089 35.3049H32.1718L31.3906 32.7708ZM35.4604 31.7551H36.0415V32.3386H35.4604V31.7551ZM35.4604 32.7708H36.0415V35.3049H35.4604V32.7708ZM36.7324 32.7708H37.3159V36.3352H36.7324V32.7708ZM37.9287 35.3416C37.7757 35.3416 37.643 35.3041 37.5307 35.2292C37.4184 35.1528 37.3354 35.0453 37.2817 34.907L37.3159 34.3528C37.3159 34.4488 37.333 34.531 37.3672 34.5994C37.4013 34.6661 37.451 34.7174 37.5161 34.7532C37.5812 34.789 37.6601 34.8069 37.7529 34.8069C37.8978 34.8069 38.0101 34.7613 38.0898 34.6702C38.1696 34.579 38.2094 34.4496 38.2094 34.282V33.8059C38.2094 33.635 38.1696 33.5032 38.0898 33.4104C38.0101 33.316 37.8978 33.2688 37.7529 33.2688C37.6601 33.2688 37.5812 33.2867 37.5161 33.3225C37.451 33.3567 37.4013 33.408 37.3672 33.4763C37.333 33.5447 37.3159 33.6269 37.3159 33.7229L37.2646 33.198C37.3362 33.0499 37.4306 32.936 37.5478 32.8562C37.6666 32.7748 37.7977 32.7341 37.9409 32.7341C38.1199 32.7341 38.2729 32.7756 38.3999 32.8586C38.5285 32.9417 38.6261 33.0637 38.6928 33.2249C38.7596 33.3844 38.7929 33.5772 38.7929 33.8035V34.282C38.7929 34.505 38.7588 34.6962 38.6904 34.8557C38.6237 35.0136 38.5252 35.134 38.395 35.217C38.2648 35.3 38.1093 35.3416 37.9287 35.3416ZM40.5141 35.3416C40.2749 35.3416 40.0706 35.2976 39.9013 35.2097C39.7321 35.1218 39.6027 34.9932 39.5132 34.824C39.4236 34.6531 39.3789 34.4472 39.3789 34.2063V33.9207C39.3789 33.67 39.4212 33.456 39.5058 33.2786C39.5921 33.1012 39.7166 32.9661 39.8794 32.8733C40.0438 32.7805 40.2407 32.7341 40.4702 32.7341C40.6867 32.7341 40.8714 32.7887 41.0244 32.8977C41.179 33.0051 41.2962 33.1614 41.3759 33.3665C41.4573 33.5715 41.498 33.8189 41.498 34.1086V34.2747H39.7768V33.8474H40.956L40.9536 33.8206C40.9373 33.6431 40.8877 33.5056 40.8047 33.408C40.7216 33.3103 40.6102 33.2615 40.4702 33.2615C40.2944 33.2615 40.1585 33.3168 40.0625 33.4275C39.9664 33.5365 39.9184 33.692 39.9184 33.8938V34.2161C39.9184 34.4081 39.9705 34.5562 40.0747 34.6604C40.1788 34.7629 40.3253 34.8142 40.5141 34.8142C40.6102 34.8142 40.7046 34.7963 40.7973 34.7605C40.8917 34.7231 40.9764 34.6718 41.0512 34.6067L41.4321 34.9631C41.3035 35.0836 41.1587 35.1772 40.9975 35.2439C40.838 35.309 40.6769 35.3416 40.5141 35.3416ZM42.0424 31.7551H42.6235V34.321H42.0424V31.7551ZM42.0424 34.7214H42.6235V35.3049H42.0424V34.7214Z" fill="#FFB000"/>
<path d="M2.66406 23.3203H3.59766V29H2.66406V23.3203ZM3.05469 25.7852H5.88672V26.6758H3.05469V25.7852ZM3.05469 23.3203H6.31641V24.2148H3.05469V23.3203ZM7.99609 27.8086C7.99609 27.9076 8.02083 27.9844 8.07031 28.0391C8.11979 28.0911 8.1901 28.1172 8.28125 28.1172H8.55859V29.0117H8.05078C7.73828 29.0117 7.49479 28.918 7.32031 28.7305C7.14844 28.543 7.0625 28.2786 7.0625 27.9375V23.3203H7.99609V27.8086ZM11.6055 26.4297C11.6055 26.2031 11.5378 26.0273 11.4023 25.9023C11.2695 25.7773 11.0807 25.7148 10.8359 25.7148C10.6797 25.7148 10.526 25.7396 10.375 25.7891C10.224 25.8385 10.0885 25.9076 9.96875 25.9961L9.34766 25.4727C9.50651 25.2878 9.71484 25.1445 9.97266 25.043C10.2305 24.9388 10.5169 24.8867 10.832 24.8867C11.1758 24.8867 11.4701 24.9466 11.7148 25.0664C11.9596 25.1836 12.1458 25.3555 12.2734 25.582C12.4036 25.806 12.4688 26.0768 12.4688 26.3945V29H11.6055V26.4297ZM10.543 29.0586C10.0768 29.0586 9.72786 28.9557 9.49609 28.75C9.26432 28.5417 9.14844 28.2266 9.14844 27.8047C9.14844 27.4036 9.26562 27.1029 9.5 26.9023C9.73438 26.7018 10.0859 26.6016 10.5547 26.6016H11.6406L11.6953 27.3281H10.5586C10.3737 27.3281 10.2344 27.3672 10.1406 27.4453C10.0495 27.5234 10.0039 27.6432 10.0039 27.8047C10.0039 27.974 10.0638 28.1003 10.1836 28.1836C10.3034 28.2643 10.4844 28.3047 10.7266 28.3047C11.0234 28.3047 11.2435 28.2721 11.3867 28.207C11.5326 28.1419 11.6055 28.0404 11.6055 27.9023L11.6875 28.4805C11.6432 28.6081 11.5651 28.7148 11.4531 28.8008C11.3438 28.8867 11.2109 28.9518 11.0547 28.9961C10.8984 29.0378 10.7279 29.0586 10.543 29.0586ZM15.832 24.9453H16.7812L15.2578 29H14.5781L13.0547 24.9453H14.0039L14.918 27.6641L15.832 24.9453ZM19 29.0586C18.6406 29.0586 18.332 28.9896 18.0742 28.8516C17.819 28.7135 17.6237 28.513 17.4883 28.25C17.3555 27.9844 17.2891 27.6654 17.2891 27.293V26.6328C17.2891 26.2656 17.3555 25.9518 17.4883 25.6914C17.6237 25.4284 17.819 25.2292 18.0742 25.0938C18.332 24.9557 18.6406 24.8867 19 24.8867C19.3594 24.8867 19.6667 24.9557 19.9219 25.0938C20.1797 25.2292 20.375 25.4284 20.5078 25.6914C20.6432 25.9518 20.7109 26.2656 20.7109 26.6328V27.3047C20.7109 27.6745 20.6432 27.9909 20.5078 28.2539C20.375 28.5143 20.1797 28.7135 19.9219 28.8516C19.6667 28.9896 19.3594 29.0586 19 29.0586ZM19 28.1641C19.2474 28.1641 19.4388 28.0898 19.5742 27.9414C19.7096 27.7904 19.7773 27.5781 19.7773 27.3047V26.6328C19.7773 26.362 19.7096 26.1523 19.5742 26.0039C19.4388 25.8555 19.2474 25.7812 19 25.7812C18.7526 25.7812 18.5612 25.8555 18.4258 26.0039C18.2904 26.1523 18.2227 26.362 18.2227 26.6328V27.3047C18.2227 27.5781 18.2891 27.7904 18.4219 27.9414C18.5573 28.0898 18.75 28.1641 19 28.1641ZM21.7656 24.9453H22.7383V29H21.7656V24.9453ZM24.0234 25.9883C23.9609 25.9206 23.8841 25.8698 23.793 25.8359C23.7018 25.7995 23.5964 25.7812 23.4766 25.7812C23.2422 25.7812 23.0599 25.8516 22.9297 25.9922C22.8021 26.1302 22.7383 26.3229 22.7383 26.5703L22.6562 25.6523C22.7734 25.4102 22.9258 25.2227 23.1133 25.0898C23.3034 24.9544 23.5117 24.8867 23.7383 24.8867C23.9154 24.8867 24.0755 24.9141 24.2188 24.9688C24.362 25.0208 24.487 25.099 24.5938 25.2031L24.0234 25.9883ZM29.0859 23.3203H30.1641V29H29.2891V24.668L29.3281 24.918L28.0859 28.2891H27.3359L26.0938 24.9961L26.1328 24.668V29H25.2578V23.3203H26.3359L27.7109 27.1094L29.0859 23.3203ZM33.6758 26.4297C33.6758 26.2031 33.6081 26.0273 33.4727 25.9023C33.3398 25.7773 33.151 25.7148 32.9062 25.7148C32.75 25.7148 32.5964 25.7396 32.4453 25.7891C32.2943 25.8385 32.1589 25.9076 32.0391 25.9961L31.418 25.4727C31.5768 25.2878 31.7852 25.1445 32.043 25.043C32.3008 24.9388 32.5872 24.8867 32.9023 24.8867C33.2461 24.8867 33.5404 24.9466 33.7852 25.0664C34.0299 25.1836 34.2161 25.3555 34.3438 25.582C34.474 25.806 34.5391 26.0768 34.5391 26.3945V29H33.6758V26.4297ZM32.6133 29.0586C32.1471 29.0586 31.7982 28.9557 31.5664 28.75C31.3346 28.5417 31.2188 28.2266 31.2188 27.8047C31.2188 27.4036 31.3359 27.1029 31.5703 26.9023C31.8047 26.7018 32.1562 26.6016 32.625 26.6016H33.7109L33.7656 27.3281H32.6289C32.444 27.3281 32.3047 27.3672 32.2109 27.4453C32.1198 27.5234 32.0742 27.6432 32.0742 27.8047C32.0742 27.974 32.1341 28.1003 32.2539 28.1836C32.3737 28.2643 32.5547 28.3047 32.7969 28.3047C33.0938 28.3047 33.3138 28.2721 33.457 28.207C33.6029 28.1419 33.6758 28.0404 33.6758 27.9023L33.7578 28.4805C33.7135 28.6081 33.6354 28.7148 33.5234 28.8008C33.4141 28.8867 33.2812 28.9518 33.125 28.9961C32.9688 29.0378 32.7982 29.0586 32.6133 29.0586ZM36.7656 29.0195C36.4245 29.0195 36.1745 28.9297 36.0156 28.75C35.8568 28.5677 35.7773 28.2995 35.7773 27.9453V23.7656H36.7109V27.8164C36.7109 27.9154 36.7305 27.9922 36.7695 28.0469C36.8086 28.099 36.8659 28.125 36.9414 28.125H37.2656V29.0195H36.7656ZM35.3594 24.9453H37.2656V25.7617H35.3594V24.9453ZM39.957 29.0586C39.5794 29.0586 39.2565 28.9883 38.9883 28.8477C38.7201 28.7044 38.5156 28.4974 38.375 28.2266C38.2344 27.9531 38.1641 27.6237 38.1641 27.2383V26.6875C38.1641 26.3073 38.2344 25.9831 38.375 25.7148C38.5156 25.444 38.7201 25.2383 38.9883 25.0977C39.2565 24.957 39.5794 24.8867 39.957 24.8867C40.1732 24.8867 40.3763 24.9128 40.5664 24.9648C40.7591 25.0143 40.931 25.0872 41.082 25.1836C41.2357 25.2799 41.3633 25.3971 41.4648 25.5352L40.832 26.1289C40.7253 26.0169 40.6003 25.931 40.457 25.8711C40.3138 25.8112 40.1641 25.7812 40.0078 25.7812C39.7188 25.7812 39.4948 25.8607 39.3359 26.0195C39.1771 26.1758 39.0977 26.3984 39.0977 26.6875V27.2383C39.0977 27.5352 39.1758 27.7643 39.332 27.9258C39.4909 28.0846 39.7161 28.1641 40.0078 28.1641C40.1667 28.1641 40.3177 28.1315 40.4609 28.0664C40.6042 28.0013 40.7279 27.9089 40.832 27.7891L41.4648 28.4219C41.3607 28.5573 41.2318 28.6732 41.0781 28.7695C40.9271 28.8633 40.7552 28.9349 40.5625 28.9844C40.3724 29.0339 40.1706 29.0586 39.957 29.0586ZM42.2656 23.3203H43.1992V29H42.2656V23.3203ZM44.668 26.543C44.668 26.3008 44.6029 26.1133 44.4727 25.9805C44.3424 25.8477 44.1576 25.7812 43.918 25.7812C43.6888 25.7812 43.5117 25.8424 43.3867 25.9648C43.2617 26.0872 43.1992 26.2604 43.1992 26.4844L43.1172 25.6445C43.2396 25.3997 43.3932 25.2122 43.5781 25.082C43.7656 24.9518 43.9857 24.8867 44.2383 24.8867C44.6706 24.8867 45.0052 25.0312 45.2422 25.3203C45.4818 25.6068 45.6016 26.013 45.6016 26.5391V29H44.668V26.543Z" fill="#FFB000"/>
<path fill-rule="evenodd" clip-rule="evenodd" d="M31.6382 39.3049C29.3855 41.1783 26.4898 42.3049 23.331 42.3049C20.1722 42.3049 17.2765 41.1783 15.0239 39.3049H12.1505C14.8971 42.3737 18.8885 44.3049 23.331 44.3049C27.7735 44.3049 31.765 42.3737 34.5116 39.3049H31.6382ZM13.9502 20.3049C16.316 17.8396 19.6443 16.3049 23.331 16.3049C27.0177 16.3049 30.346 17.8396 32.7119 20.3049H35.3321C32.5955 16.6616 28.2385 14.3049 23.331 14.3049C18.4236 14.3049 14.0665 16.6616 11.3299 20.3049H13.9502Z" fill="white"/>
<path d="M17.3812 53.4128C17.4035 54.9688 19.2669 56.2028 21.0462 56.1743C22.4396 56.1531 23.3676 55.3629 23.6917 54.2738L24.4792 54.2738L24.4791 52.3603L23.6626 52.3603C23.3055 51.2815 22.3539 50.52 20.9605 50.5412C19.1812 50.5668 17.3561 51.8569 17.3812 53.4128Z" fill="white"/>
<path d="M24.5549 41.2516C24.5216 41.2517 24.4889 41.2439 24.4593 41.2287L23.4002 40.6742L22.3411 41.2287C22.3067 41.2468 22.2679 41.2549 22.2291 41.252C22.1904 41.2492 22.1532 41.2355 22.1219 41.2126C22.0905 41.1896 22.0662 41.1584 22.0517 41.1223C22.0372 41.0862 22.0331 41.0468 22.0399 41.0086L22.2476 39.8394L21.392 39.0087C21.3653 38.9821 21.3464 38.9487 21.3372 38.9121C21.3281 38.8755 21.3291 38.8371 21.3401 38.801C21.3521 38.7641 21.3743 38.7313 21.404 38.7064C21.4337 38.6814 21.4699 38.6653 21.5083 38.6598L22.692 38.4874L23.2133 37.4221C23.2303 37.387 23.2568 37.3574 23.2899 37.3366C23.323 37.3159 23.3612 37.3049 23.4002 37.3049C23.4392 37.3049 23.4774 37.3159 23.5105 37.3366C23.5435 37.3574 23.5701 37.387 23.5871 37.4221L24.1146 38.4854L25.2983 38.6577C25.3368 38.6632 25.3729 38.6793 25.4026 38.7043C25.4324 38.7292 25.4545 38.762 25.4665 38.7989C25.4776 38.835 25.4785 38.8734 25.4694 38.91C25.4602 38.9466 25.4413 38.98 25.4146 39.0066L24.559 39.8373L24.7667 41.0065C24.7741 41.0454 24.7702 41.0857 24.7555 41.1225C24.7408 41.1593 24.7158 41.1911 24.6836 41.2142C24.646 41.2405 24.6007 41.2537 24.5549 41.2516Z" fill="#FFB000"/>
<path fill-rule="evenodd" clip-rule="evenodd" d="M3.05176e-05 20.3048C3.49933 11.2395 12.1299 4.72576 22.331 4.32446V6.32618C13.253 6.71454 5.53795 12.365 2.1586 20.3048H3.05176e-05ZM44.5035 20.3048C41.8999 14.1875 36.7225 9.42919 30.331 7.38942V5.29805C37.8309 7.48117 43.8746 13.0834 46.6621 20.3048H44.5035ZM44.0492 39.3048C40.329 46.9983 32.4497 52.3048 23.3311 52.3048V54.3048C33.5826 54.3048 42.3931 48.1344 46.2508 39.3048H44.0492ZM15.331 52.9974V50.8753C9.74653 48.8034 5.18537 44.6248 2.61288 39.3048H0.411272C3.21621 45.7246 8.63936 50.7387 15.331 52.9974Z" fill="white"/>
<mask id="path-8-inside-1_96_596" fill="white">
<path d="M19.7784 4.59977L22.174 4.59977C22.3271 4.17664 22.6017 3.77123 22.9843 3.50115C23.367 3.23107 23.7969 3.09603 24.274 3.09604L27.2652 3.10285C27.4048 3.09836 27.5252 3.14675 27.6265 3.24803C27.7278 3.34932 27.7784 3.47198 27.7784 3.61603C27.7784 3.76008 27.7278 3.88274 27.6265 3.98403C27.5252 4.08531 27.4048 4.1337 27.2652 4.12919L24.1052 4.12913C23.9746 4.34069 23.8778 4.57252 23.8148 4.8246L27.2585 4.82467C27.4025 4.82467 27.5252 4.87532 27.6264 4.9766C27.7277 5.07789 27.7784 5.20055 27.7784 5.3446C27.7784 5.48865 27.7288 5.61019 27.6298 5.70922C27.5308 5.80825 27.4092 5.85776 27.2652 5.85776L23.8148 5.86444C23.8733 6.11203 23.9678 6.3416 24.0984 6.55317L27.2584 6.55324C27.4025 6.55324 27.5251 6.60388 27.6264 6.70517C27.7277 6.80646 27.7783 6.92687 27.7783 7.06642C27.7783 7.20596 27.7277 7.32638 27.6264 7.42766C27.5251 7.52894 27.4024 7.57958 27.2584 7.57958L24.2672 7.59977C23.7945 7.59526 23.3657 7.45683 22.9809 7.18448C22.596 6.91214 22.3271 6.56439 22.174 6.14125L19.7784 6.14125L19.7784 4.59977Z"/>
</mask>
<path d="M19.7784 4.59977L19.7784 2.59977L17.7784 2.59977L17.7784 4.59977L19.7784 4.59977ZM22.174 4.59977L22.174 6.59977L23.5774 6.59977L24.0547 5.28008L22.174 4.59977ZM24.274 3.09604L24.2786 1.09604L24.2741 1.09604L24.274 3.09604ZM27.2652 3.10285L27.2607 5.10285L27.2952 5.10293L27.3297 5.10182L27.2652 3.10285ZM27.2652 4.12919L27.3297 2.13023L27.2975 2.12919L27.2653 2.12919L27.2652 4.12919ZM24.1052 4.12913L24.1052 2.12913L22.9892 2.1291L22.4031 3.07888L24.1052 4.12913ZM23.8148 4.8246L21.8745 4.33949L21.2532 6.82455L23.8148 6.8246L23.8148 4.8246ZM27.2585 4.82467L27.2585 2.82467L27.2585 2.82467L27.2585 4.82467ZM27.2652 5.85776L27.2652 3.85776L27.2613 3.85776L27.2652 5.85776ZM23.8148 5.86444L23.8109 3.86445L21.2882 3.86933L21.8684 6.32446L23.8148 5.86444ZM24.0984 6.55317L22.3963 7.60336L22.9823 8.55315L24.0983 8.55317L24.0984 6.55317ZM27.2584 6.55324L27.2585 4.55324L27.2585 4.55324L27.2584 6.55324ZM27.2584 7.57958L27.2584 5.57953L27.2449 5.57962L27.2584 7.57958ZM24.2672 7.59977L24.2481 9.59968L24.2644 9.59984L24.2807 9.59973L24.2672 7.59977ZM22.174 6.14125L24.0548 5.46101L23.5774 4.14125L22.174 4.14125L22.174 6.14125ZM19.7784 6.14125L17.7784 6.14125L17.7784 8.14125L19.7784 8.14125L19.7784 6.14125ZM19.7784 6.59977L22.174 6.59977L22.174 2.59977L19.7784 2.59977L19.7784 6.59977ZM24.0547 5.28008C24.0717 5.23327 24.0939 5.19252 24.1151 5.16313C24.136 5.13411 24.1467 5.1287 24.1377 5.13511L21.831 1.86719C21.0557 2.41446 20.5591 3.18467 20.2933 3.91947L24.0547 5.28008ZM24.1377 5.13511C24.1761 5.10795 24.2015 5.09604 24.274 5.09604L24.2741 1.09604C23.3922 1.09602 22.5578 1.35418 21.831 1.86719L24.1377 5.13511ZM24.2695 5.09604L27.2607 5.10285L27.2698 1.10286L24.2786 1.09605L24.2695 5.09604ZM27.3297 5.10182C27.1437 5.10781 26.9305 5.07836 26.7144 4.99152C26.4995 4.90514 26.3325 4.78246 26.2122 4.66222L29.0407 1.83385C28.56 1.35311 27.9089 1.08107 27.2008 1.10389L27.3297 5.10182ZM26.2122 4.66222C26.0915 4.5415 25.9747 4.3801 25.8918 4.17916C25.8089 3.97846 25.7784 3.78328 25.7784 3.616L29.7784 3.61607C29.7784 2.94497 29.5195 2.3126 29.0407 1.83385L26.2122 4.66222ZM25.7784 3.616C25.7784 3.4487 25.8089 3.25353 25.8918 3.05282C25.9747 2.85189 26.0916 2.6905 26.2123 2.56978L29.0407 5.39827C29.5194 4.91954 29.7784 4.28718 29.7784 3.61607L25.7784 3.616ZM26.2123 2.56978C26.3325 2.44955 26.4995 2.32688 26.7145 2.24051C26.9306 2.15367 27.1437 2.12423 27.3297 2.13023L27.2007 6.12815C27.9088 6.15101 28.5599 5.87898 29.0407 5.39827L26.2123 2.56978ZM27.2653 2.12919L24.1052 2.12913L24.1051 6.12913L27.2652 6.12919L27.2653 2.12919ZM22.4031 3.07888C22.1598 3.47324 21.9852 3.89698 21.8745 4.33949L25.7551 5.30971C25.7705 5.24806 25.7895 5.20814 25.8072 5.17937L22.4031 3.07888ZM23.8148 6.8246L27.2584 6.82467L27.2585 2.82467L23.8149 2.8246L23.8148 6.8246ZM27.2584 6.82467C27.0911 6.82467 26.896 6.79416 26.6952 6.71129C26.4943 6.62834 26.3329 6.51151 26.2122 6.39079L29.0407 3.56242C28.562 3.08366 27.9296 2.82468 27.2585 2.82467L27.2584 6.82467ZM26.2122 6.39079C26.0915 6.27007 25.9747 6.10867 25.8917 5.90773C25.8089 5.70702 25.7784 5.51185 25.7784 5.34457L29.7784 5.34464C29.7784 4.67354 29.5194 4.04117 29.0407 3.56242L26.2122 6.39079ZM25.7784 5.34457C25.7784 5.1832 25.8071 4.99039 25.8891 4.78916C25.9715 4.58681 26.0895 4.42112 26.2156 4.29498L29.044 7.12346C29.5299 6.63756 29.7784 6.0022 29.7784 5.34464L25.7784 5.34457ZM26.2156 4.29498C26.3418 4.16883 26.5075 4.05086 26.7098 3.96843C26.9111 3.88645 27.1039 3.85776 27.2652 3.85776L27.2651 7.85776C27.9227 7.85777 28.5581 7.60935 29.044 7.12346L26.2156 4.29498ZM27.2613 3.85776L23.8109 3.86445L23.8187 7.86444L27.2691 7.85776L27.2613 3.85776ZM21.8684 6.32446C21.9751 6.77564 22.1506 7.20515 22.3963 7.60336L25.8005 5.50299C25.7851 5.47806 25.7716 5.44841 25.7612 5.40443L21.8684 6.32446ZM24.0983 8.55317L27.2584 8.55324L27.2585 4.55324L24.0984 4.55317L24.0983 8.55317ZM27.2584 8.55324C27.0911 8.55323 26.8959 8.52273 26.6952 8.43986C26.4943 8.3569 26.3329 8.24007 26.2122 8.11936L29.0407 5.29098C28.5619 4.81223 27.9296 4.55325 27.2585 4.55324L27.2584 8.55324ZM26.2122 8.11936C26.0974 8.00459 25.9811 7.84739 25.8967 7.64675C25.8119 7.44508 25.7783 7.24448 25.7783 7.06638L29.7783 7.06645C29.7783 6.38098 29.5059 5.75625 29.0407 5.29098L26.2122 8.11936ZM25.7783 7.06638C25.7783 6.88828 25.812 6.68767 25.8968 6.486C25.9812 6.28537 26.0975 6.12817 26.2122 6.01342L29.0406 8.8419C29.5058 8.37666 29.7783 7.75194 29.7783 7.06645L25.7783 7.06638ZM26.2122 6.01342C26.3329 5.8927 26.4943 5.77588 26.6953 5.69293C26.896 5.61007 27.0912 5.57957 27.2584 5.57958L27.2584 9.57958C27.9295 9.57959 28.5618 9.32063 29.0406 8.8419L26.2122 6.01342ZM27.2449 5.57962L24.2537 5.59982L24.2807 9.59973L27.2719 9.57953L27.2449 5.57962ZM24.2863 5.59986C24.2198 5.59923 24.1876 5.58833 24.1362 5.5519L21.8256 8.81707C22.5439 9.32534 23.3692 9.59129 24.2481 9.59968L24.2863 5.59986ZM24.1362 5.5519C24.0678 5.50351 24.062 5.48105 24.0548 5.46101L20.2932 6.82149C20.5921 7.64774 21.1242 8.32076 21.8256 8.81707L24.1362 5.5519ZM22.174 4.14125L19.7784 4.14125L19.7784 8.14125L22.174 8.14125L22.174 4.14125ZM21.7784 6.14125L21.7784 4.59977L17.7784 4.59977L17.7784 6.14125L21.7784 6.14125Z" fill="white" mask="url(#path-8-inside-1_96_596)"/>
</svg>
