<svg width="69" height="81" viewBox="0 0 69 81" fill="none" xmlns="http://www.w3.org/2000/svg">
<path d="M32.0742 28.2136C32.0742 28.3438 32.0547 28.4636 32.0156 28.573C31.974 28.6824 31.918 28.7957 31.8477 28.9128L31.7969 28.9988C31.7396 29.0873 31.6979 29.1602 31.6719 29.2175C31.6458 29.2748 31.6328 29.3321 31.6328 29.3894C31.6328 29.4806 31.6654 29.5496 31.7305 29.5964C31.7956 29.6407 31.8919 29.6628 32.0195 29.6628H32.0625V30.4949H31.9453C31.513 30.4949 31.1888 30.4259 30.9727 30.2878C30.7565 30.1472 30.6484 29.9376 30.6484 29.6589C30.6484 29.5235 30.668 29.4011 30.707 29.2917C30.7461 29.1798 30.8008 29.0639 30.8711 28.9441C30.8737 28.9363 30.8776 28.9298 30.8828 28.9246C30.8854 28.9194 30.888 28.9141 30.8906 28.9089C30.8958 28.8985 30.901 28.8894 30.9062 28.8816C30.9089 28.8712 30.9141 28.8621 30.9219 28.8542C30.9766 28.7605 31.0156 28.6876 31.0391 28.6355C31.0625 28.5808 31.0742 28.5248 31.0742 28.4675C31.0742 28.3764 31.0391 28.3087 30.9688 28.2644C30.8984 28.2175 30.793 28.1941 30.6523 28.1941H30.6133V27.3621H30.707C31.1628 27.3621 31.5052 27.4337 31.7344 27.5769C31.9609 27.7175 32.0742 27.9298 32.0742 28.2136ZM36.0742 28.2136C36.0742 28.3438 36.0547 28.4636 36.0156 28.573C35.974 28.6824 35.918 28.7957 35.8477 28.9128L35.7969 28.9988C35.7396 29.0873 35.6979 29.1602 35.6719 29.2175C35.6458 29.2748 35.6328 29.3321 35.6328 29.3894C35.6328 29.4806 35.6654 29.5496 35.7305 29.5964C35.7956 29.6407 35.8919 29.6628 36.0195 29.6628H36.0625V30.4949H35.9453C35.513 30.4949 35.1888 30.4259 34.9727 30.2878C34.7565 30.1472 34.6484 29.9376 34.6484 29.6589C34.6484 29.5235 34.668 29.4011 34.707 29.2917C34.7461 29.1798 34.8008 29.0639 34.8711 28.9441C34.8737 28.9363 34.8776 28.9298 34.8828 28.9246C34.8854 28.9194 34.888 28.9141 34.8906 28.9089C34.8958 28.8985 34.901 28.8894 34.9062 28.8816C34.9089 28.8712 34.9141 28.8621 34.9219 28.8542C34.9766 28.7605 35.0156 28.6876 35.0391 28.6355C35.0625 28.5808 35.0742 28.5248 35.0742 28.4675C35.0742 28.3764 35.0391 28.3087 34.9688 28.2644C34.8984 28.2175 34.793 28.1941 34.6523 28.1941H34.6133V27.3621H34.707C35.1628 27.3621 35.5052 27.4337 35.7344 27.5769C35.9609 27.7175 36.0742 27.9298 36.0742 28.2136Z" fill="white"/>
<path d="M9.10889 49.0513C8.86963 49.0513 8.63949 49.0285 8.41846 48.9829C8.19971 48.9351 7.99349 48.8656 7.7998 48.7744C7.6084 48.6833 7.43294 48.5705 7.27344 48.436L7.70752 47.7832C7.89893 47.945 8.11312 48.068 8.3501 48.1523C8.58936 48.2344 8.84229 48.2754 9.10889 48.2754C9.44157 48.2754 9.69906 48.2161 9.88135 48.0977C10.0659 47.9792 10.1582 47.8117 10.1582 47.5952V47.5918C10.1582 47.4391 10.1172 47.3184 10.0352 47.2295C9.95312 47.1383 9.84603 47.0723 9.71387 47.0312C9.58171 46.988 9.41195 46.9481 9.20459 46.9116C9.19775 46.9093 9.19092 46.9082 9.18408 46.9082C9.17725 46.9082 9.17041 46.9071 9.16357 46.9048L9.10205 46.8945C8.76937 46.8398 8.49593 46.7749 8.28174 46.6997C8.06755 46.6245 7.88525 46.4901 7.73486 46.2964C7.58447 46.1027 7.50928 45.8281 7.50928 45.4727V45.4692C7.50928 45.1548 7.57992 44.8859 7.72119 44.6626C7.86247 44.4393 8.06755 44.2695 8.33643 44.1533C8.60531 44.0371 8.92887 43.979 9.30713 43.979C9.48486 43.979 9.6626 43.9995 9.84033 44.0405C10.0203 44.0793 10.1958 44.1374 10.3667 44.2148C10.5399 44.29 10.7074 44.3846 10.8691 44.4985L10.4727 45.1719C10.2812 45.0352 10.0864 44.9315 9.88818 44.8608C9.68994 44.7902 9.49626 44.7549 9.30713 44.7549C8.99268 44.7549 8.74886 44.813 8.57568 44.9292C8.40479 45.0431 8.31934 45.2049 8.31934 45.4146V45.418C8.31934 45.5752 8.36377 45.6994 8.45264 45.7905C8.5415 45.8817 8.65202 45.9489 8.78418 45.9922C8.91862 46.0332 9.10547 46.0776 9.34473 46.1255C9.35384 46.1278 9.36182 46.13 9.36865 46.1323C9.37777 46.1323 9.38688 46.1335 9.396 46.1357C9.40739 46.138 9.41992 46.1403 9.43359 46.1426C9.44727 46.1449 9.4598 46.1471 9.47119 46.1494C9.77881 46.2109 10.0352 46.285 10.2402 46.3716C10.4476 46.4582 10.6208 46.5972 10.7598 46.7886C10.8988 46.98 10.9683 47.2409 10.9683 47.5713V47.5781C10.9683 47.888 10.8953 48.1535 10.7495 48.3745C10.6037 48.5955 10.3918 48.7642 10.1138 48.8804C9.83577 48.9943 9.50081 49.0513 9.10889 49.0513ZM13.8052 46.751C13.8052 46.5527 13.7459 46.3989 13.6274 46.2896C13.5112 46.1802 13.346 46.1255 13.1318 46.1255C12.9951 46.1255 12.8607 46.1471 12.7285 46.1904C12.5964 46.2337 12.4779 46.2941 12.373 46.3716L11.8296 45.9136C11.9686 45.7518 12.1509 45.6265 12.3765 45.5376C12.6021 45.4465 12.8527 45.4009 13.1284 45.4009C13.4292 45.4009 13.6867 45.4533 13.9009 45.5581C14.1151 45.6606 14.278 45.811 14.3896 46.0093C14.5036 46.2052 14.5605 46.4422 14.5605 46.7202V49H13.8052V46.751ZM12.8755 49.0513C12.4676 49.0513 12.1623 48.9613 11.9595 48.7812C11.7567 48.599 11.6553 48.3232 11.6553 47.9541C11.6553 47.6032 11.7578 47.34 11.9629 47.1646C12.168 46.9891 12.4756 46.9014 12.8857 46.9014H13.8359L13.8838 47.5371H12.8892C12.7274 47.5371 12.6055 47.5713 12.5234 47.6396C12.4437 47.708 12.4038 47.8128 12.4038 47.9541C12.4038 48.1022 12.4562 48.2127 12.561 48.2856C12.6659 48.3563 12.8242 48.3916 13.0361 48.3916C13.2959 48.3916 13.4884 48.3631 13.6138 48.3062C13.7414 48.2492 13.8052 48.1603 13.8052 48.0396L13.877 48.5454C13.8382 48.6571 13.7699 48.7505 13.6719 48.8257C13.5762 48.9009 13.46 48.9578 13.3232 48.9966C13.1865 49.033 13.0373 49.0513 12.8755 49.0513ZM17.5034 45.4521H18.334L17.001 49H16.4062L15.0732 45.4521H15.9038L16.7036 47.8311L17.5034 45.4521ZM20.3677 49.0513C20.0327 49.0513 19.7467 48.9897 19.5098 48.8667C19.2728 48.7437 19.0916 48.5636 18.9663 48.3267C18.841 48.0874 18.7783 47.7992 18.7783 47.4619V47.062C18.7783 46.7111 18.8376 46.4115 18.9561 46.1631C19.0768 45.9147 19.2511 45.7256 19.479 45.5957C19.7091 45.4658 19.9849 45.4009 20.3062 45.4009C20.6092 45.4009 20.8678 45.4772 21.082 45.6299C21.2985 45.7803 21.4626 45.999 21.5742 46.2861C21.6882 46.5732 21.7451 46.9196 21.7451 47.3252V47.5576H19.3354V46.9595H20.9863L20.9829 46.9219C20.9601 46.6735 20.8906 46.481 20.7744 46.3442C20.6582 46.2075 20.5021 46.1392 20.3062 46.1392C20.0601 46.1392 19.8698 46.2166 19.7354 46.3716C19.6009 46.5243 19.5337 46.7419 19.5337 47.0244V47.4756C19.5337 47.7445 19.6066 47.9518 19.7524 48.0977C19.8983 48.2412 20.1034 48.313 20.3677 48.313C20.5021 48.313 20.6343 48.2879 20.7642 48.2378C20.8963 48.1854 21.0148 48.1136 21.1196 48.0225L21.6528 48.5215C21.4728 48.6901 21.27 48.8211 21.0444 48.9146C20.8211 49.0057 20.5955 49.0513 20.3677 49.0513ZM24.7871 49.0171C24.4886 49.0171 24.2699 48.9385 24.1309 48.7812C23.9919 48.6217 23.9224 48.387 23.9224 48.0771V44.4199H24.7393V47.9644C24.7393 48.0509 24.7563 48.1182 24.7905 48.166C24.8247 48.2116 24.8748 48.2344 24.9409 48.2344H25.2246V49.0171H24.7871ZM23.5566 45.4521H25.2246V46.1665H23.5566V45.4521ZM26.0894 44.0303H26.9028V44.8472H26.0894V44.0303ZM26.0894 45.4521H26.9028V49H26.0894V45.4521ZM32.0571 46.9014C32.0571 46.6712 32.0002 46.4946 31.8862 46.3716C31.7723 46.2463 31.6105 46.1836 31.4009 46.1836C31.2026 46.1836 31.0488 46.244 30.9395 46.3647C30.8324 46.4832 30.7788 46.653 30.7788 46.874L30.6216 46.1221C30.7332 45.8919 30.8791 45.7142 31.0591 45.5889C31.2414 45.4635 31.443 45.4009 31.6641 45.4009C31.9193 45.4009 32.1369 45.459 32.3169 45.5752C32.4992 45.6914 32.637 45.8623 32.7305 46.0879C32.8262 46.3112 32.874 46.5812 32.874 46.8979V49H32.0571V46.9014ZM27.8701 45.4521H28.687V49H27.8701V45.4521ZM29.9653 46.9014C29.9653 46.6712 29.9084 46.4946 29.7944 46.3716C29.6828 46.2463 29.5233 46.1836 29.3159 46.1836C29.1154 46.1836 28.9604 46.2383 28.8511 46.3477C28.7417 46.4548 28.687 46.6074 28.687 46.8057L28.6152 46.0708C28.7223 45.8543 28.859 45.6891 29.0254 45.5752C29.1917 45.459 29.382 45.4009 29.5962 45.4009C29.8446 45.4009 30.0576 45.459 30.2354 45.5752C30.4131 45.6914 30.5475 45.8623 30.6387 46.0879C30.7321 46.3112 30.7788 46.5812 30.7788 46.8979V49H29.9653V46.9014ZM35.3521 49.0513C35.0171 49.0513 34.7311 48.9897 34.4941 48.8667C34.2572 48.7437 34.076 48.5636 33.9507 48.3267C33.8254 48.0874 33.7627 47.7992 33.7627 47.4619V47.062C33.7627 46.7111 33.8219 46.4115 33.9404 46.1631C34.0612 45.9147 34.2355 45.7256 34.4634 45.5957C34.6935 45.4658 34.9692 45.4009 35.2905 45.4009C35.5936 45.4009 35.8522 45.4772 36.0664 45.6299C36.2829 45.7803 36.4469 45.999 36.5586 46.2861C36.6725 46.5732 36.7295 46.9196 36.7295 47.3252V47.5576H34.3198V46.9595H35.9707L35.9673 46.9219C35.9445 46.6735 35.875 46.481 35.7588 46.3442C35.6426 46.2075 35.4865 46.1392 35.2905 46.1392C35.0444 46.1392 34.8542 46.2166 34.7197 46.3716C34.5853 46.5243 34.5181 46.7419 34.5181 47.0244V47.4756C34.5181 47.7445 34.591 47.9518 34.7368 48.0977C34.8826 48.2412 35.0877 48.313 35.3521 48.313C35.4865 48.313 35.6187 48.2879 35.7485 48.2378C35.8807 48.1854 35.9992 48.1136 36.104 48.0225L36.6372 48.5215C36.4572 48.6901 36.2544 48.8211 36.0288 48.9146C35.8055 49.0057 35.5799 49.0513 35.3521 49.0513ZM37.355 48.166H38.1685V49L37.355 49.6904V48.166ZM41.5693 49.0513C41.3574 49.0513 41.1558 49.0319 40.9644 48.9932C40.7729 48.9521 40.5929 48.8929 40.4243 48.8154C40.258 48.738 40.1076 48.6434 39.9731 48.5317L40.4688 47.9165C40.6488 48.0441 40.8322 48.141 41.019 48.207C41.2082 48.2731 41.3916 48.3062 41.5693 48.3062C41.8177 48.3062 42.0057 48.2731 42.1333 48.207C42.2632 48.1387 42.3281 48.0407 42.3281 47.9131C42.3281 47.8151 42.2962 47.7422 42.2324 47.6943C42.1686 47.6442 42.0877 47.61 41.9897 47.5918C41.894 47.5736 41.7585 47.5565 41.583 47.5405C41.5534 47.5382 41.5226 47.536 41.4907 47.5337C41.4588 47.5314 41.4281 47.528 41.3984 47.5234C41.3893 47.5234 41.3802 47.5234 41.3711 47.5234C41.362 47.5212 41.3529 47.52 41.3438 47.52C41.0954 47.4927 40.8914 47.4551 40.7319 47.4072C40.5724 47.3571 40.438 47.2625 40.3286 47.1235C40.2215 46.9845 40.168 46.7852 40.168 46.5254C40.168 46.2816 40.2215 46.0765 40.3286 45.9102C40.438 45.7415 40.5975 45.6151 40.8071 45.5308C41.0168 45.4442 41.2743 45.4009 41.5796 45.4009C41.7619 45.4009 41.9396 45.4191 42.1128 45.4556C42.286 45.4897 42.4512 45.541 42.6084 45.6094C42.7679 45.6755 42.9183 45.7586 43.0596 45.8589L42.5708 46.4536C42.4045 46.3534 42.2358 46.277 42.0649 46.2246C41.8963 46.1722 41.7323 46.146 41.5728 46.146C41.3586 46.146 41.1956 46.1768 41.084 46.2383C40.9723 46.2998 40.9165 46.391 40.9165 46.5117C40.9165 46.5892 40.9473 46.6484 41.0088 46.6895C41.0703 46.7305 41.1466 46.759 41.2378 46.7749C41.3312 46.7886 41.4657 46.8034 41.6411 46.8193C41.6593 46.8216 41.6764 46.8239 41.6924 46.8262C41.7106 46.8262 41.7288 46.8273 41.7471 46.8296C41.7539 46.8296 41.7619 46.8296 41.771 46.8296C41.7801 46.8296 41.7892 46.8307 41.7983 46.833C42.0604 46.8581 42.278 46.8957 42.4512 46.9458C42.6243 46.9959 42.7713 47.0962 42.8921 47.2466C43.0129 47.3947 43.0732 47.6112 43.0732 47.896C43.0732 48.1466 43.0163 48.3586 42.9023 48.5317C42.7884 48.7026 42.6187 48.8325 42.3931 48.9214C42.1698 49.008 41.8952 49.0513 41.5693 49.0513ZM43.4834 45.4521H44.2969L44.9258 47.814L45.7427 45.4521H46.2622L47.0791 47.814L47.708 45.4521H48.5215L47.4277 49H46.8159L46.0024 46.6177L45.189 49H44.5771L43.4834 45.4521ZM49.1812 44.0303H49.9946V44.8472H49.1812V44.0303ZM49.1812 45.4521H49.9946V49H49.1812V45.4521ZM50.9619 45.4521H51.7788V50.4424H50.9619V45.4521ZM52.6367 49.0513C52.4225 49.0513 52.2368 48.9989 52.0796 48.894C51.9224 48.7869 51.8062 48.6366 51.731 48.4429L51.7788 47.667C51.7788 47.8014 51.8027 47.9165 51.8506 48.0122C51.8984 48.1056 51.9679 48.1774 52.0591 48.2275C52.1502 48.2777 52.2607 48.3027 52.3906 48.3027C52.5934 48.3027 52.7507 48.2389 52.8623 48.1113C52.974 47.9837 53.0298 47.8026 53.0298 47.5679V46.9014C53.0298 46.6621 52.974 46.4775 52.8623 46.3477C52.7507 46.2155 52.5934 46.1494 52.3906 46.1494C52.2607 46.1494 52.1502 46.1745 52.0591 46.2246C51.9679 46.2725 51.8984 46.3442 51.8506 46.4399C51.8027 46.5356 51.7788 46.6507 51.7788 46.7852L51.707 46.0503C51.8073 45.8429 51.9395 45.6834 52.1035 45.5718C52.2699 45.4578 52.4533 45.4009 52.6538 45.4009C52.9045 45.4009 53.1187 45.459 53.2964 45.5752C53.4764 45.6914 53.6131 45.8623 53.7065 46.0879C53.8 46.3112 53.8467 46.5812 53.8467 46.8979V47.5679C53.8467 47.88 53.7988 48.1478 53.7031 48.3711C53.6097 48.5921 53.4718 48.7607 53.2896 48.877C53.1073 48.9932 52.8896 49.0513 52.6367 49.0513ZM56.2563 49.0513C55.9214 49.0513 55.6354 48.9897 55.3984 48.8667C55.1615 48.7437 54.9803 48.5636 54.855 48.3267C54.7297 48.0874 54.667 47.7992 54.667 47.4619V47.062C54.667 46.7111 54.7262 46.4115 54.8447 46.1631C54.9655 45.9147 55.1398 45.7256 55.3677 45.5957C55.5978 45.4658 55.8735 45.4009 56.1948 45.4009C56.4979 45.4009 56.7565 45.4772 56.9707 45.6299C57.1872 45.7803 57.3512 45.999 57.4629 46.2861C57.5768 46.5732 57.6338 46.9196 57.6338 47.3252V47.5576H55.2241V46.9595H56.875L56.8716 46.9219C56.8488 46.6735 56.7793 46.481 56.6631 46.3442C56.5469 46.2075 56.3908 46.1392 56.1948 46.1392C55.9487 46.1392 55.7585 46.2166 55.624 46.3716C55.4896 46.5243 55.4224 46.7419 55.4224 47.0244V47.4756C55.4224 47.7445 55.4953 47.9518 55.6411 48.0977C55.7869 48.2412 55.992 48.313 56.2563 48.313C56.3908 48.313 56.5229 48.2879 56.6528 48.2378C56.785 48.1854 56.9035 48.1136 57.0083 48.0225L57.5415 48.5215C57.3615 48.6901 57.1587 48.8211 56.9331 48.9146C56.7098 49.0057 56.4842 49.0513 56.2563 49.0513ZM58.396 44.0303H59.2095V47.6226H58.396V44.0303ZM58.396 48.1831H59.2095V49H58.396V48.1831Z" fill="white"/>
<path d="M3.91309 33.1904H5.19678V41H3.91309V33.1904ZM4.4502 36.5796H8.34424V37.8042H4.4502V36.5796ZM4.4502 33.1904H8.93506V34.4204H4.4502V33.1904ZM11.2446 39.3618C11.2446 39.4979 11.2786 39.6035 11.3467 39.6787C11.4147 39.7503 11.5114 39.7861 11.6367 39.7861H12.0181V41.0161H11.3198C10.8901 41.0161 10.5553 40.8872 10.3154 40.6294C10.0791 40.3716 9.96094 40.0081 9.96094 39.5391V33.1904H11.2446V39.3618ZM16.2075 37.4658C16.2075 37.1543 16.1144 36.9126 15.9282 36.7407C15.7456 36.5688 15.486 36.4829 15.1494 36.4829C14.9346 36.4829 14.7233 36.5169 14.5156 36.585C14.3079 36.653 14.1217 36.7479 13.957 36.8696L13.103 36.1499C13.3215 35.8957 13.6079 35.6987 13.9624 35.5591C14.3169 35.4159 14.7108 35.3442 15.144 35.3442C15.6167 35.3442 16.0213 35.4266 16.3579 35.5913C16.6945 35.7524 16.9505 35.9888 17.126 36.3003C17.305 36.6082 17.3945 36.9806 17.3945 37.4175V41H16.2075V37.4658ZM14.7466 41.0806C14.1056 41.0806 13.6258 40.9391 13.3071 40.6562C12.9884 40.3698 12.8291 39.9365 12.8291 39.3564C12.8291 38.805 12.9902 38.3914 13.3125 38.1157C13.6348 37.84 14.1182 37.7021 14.7627 37.7021H16.2559L16.3311 38.7012H14.7681C14.5138 38.7012 14.3223 38.7549 14.1934 38.8623C14.068 38.9697 14.0054 39.1344 14.0054 39.3564C14.0054 39.5892 14.0877 39.7629 14.2524 39.8774C14.4172 39.9884 14.666 40.0439 14.999 40.0439C15.4072 40.0439 15.7098 39.9992 15.9067 39.9097C16.1073 39.8201 16.2075 39.6805 16.2075 39.4907L16.3203 40.2856C16.2594 40.4611 16.152 40.6079 15.998 40.7261C15.8477 40.8442 15.665 40.9338 15.4502 40.9946C15.2354 41.0519 15.0008 41.0806 14.7466 41.0806ZM22.019 35.4248H23.3242L21.2295 41H20.2949L18.2002 35.4248H19.5054L20.7622 39.1631L22.019 35.4248ZM26.375 41.0806C25.8809 41.0806 25.4565 40.9857 25.1021 40.7959C24.7511 40.6061 24.4826 40.3304 24.2964 39.9688C24.1138 39.6035 24.0225 39.1649 24.0225 38.6528V37.7451C24.0225 37.2402 24.1138 36.8088 24.2964 36.4507C24.4826 36.089 24.7511 35.8151 25.1021 35.6289C25.4565 35.4391 25.8809 35.3442 26.375 35.3442C26.8691 35.3442 27.2917 35.4391 27.6426 35.6289C27.9971 35.8151 28.2656 36.089 28.4482 36.4507C28.6344 36.8088 28.7275 37.2402 28.7275 37.7451V38.6689C28.7275 39.1774 28.6344 39.6125 28.4482 39.9741C28.2656 40.3322 27.9971 40.6061 27.6426 40.7959C27.2917 40.9857 26.8691 41.0806 26.375 41.0806ZM26.375 39.8506C26.7152 39.8506 26.9784 39.7485 27.1646 39.5444C27.3507 39.3368 27.4438 39.0449 27.4438 38.6689V37.7451C27.4438 37.3727 27.3507 37.0845 27.1646 36.8804C26.9784 36.6763 26.7152 36.5742 26.375 36.5742C26.0348 36.5742 25.7716 36.6763 25.5854 36.8804C25.3993 37.0845 25.3062 37.3727 25.3062 37.7451V38.6689C25.3062 39.0449 25.3975 39.3368 25.5801 39.5444C25.7663 39.7485 26.0312 39.8506 26.375 39.8506ZM30.1777 35.4248H31.5151V41H30.1777V35.4248ZM33.2822 36.8589C33.1963 36.7658 33.0907 36.696 32.9653 36.6494C32.84 36.5993 32.695 36.5742 32.5303 36.5742C32.208 36.5742 31.9574 36.6709 31.7783 36.8643C31.6029 37.054 31.5151 37.319 31.5151 37.6592L31.4023 36.397C31.5635 36.064 31.7729 35.8062 32.0308 35.6235C32.2922 35.4373 32.5786 35.3442 32.8901 35.3442C33.1336 35.3442 33.3538 35.3818 33.5508 35.457C33.7477 35.5286 33.9196 35.6361 34.0664 35.7793L33.2822 36.8589ZM40.2432 33.1904H41.7256V41H40.5225V35.0435L40.5762 35.3872L38.8682 40.0225H37.8369L36.1289 35.4946L36.1826 35.0435V41H34.9795V33.1904H36.4619L38.3525 38.4004L40.2432 33.1904ZM46.5542 37.4658C46.5542 37.1543 46.4611 36.9126 46.2749 36.7407C46.0923 36.5688 45.8327 36.4829 45.4961 36.4829C45.2812 36.4829 45.07 36.5169 44.8623 36.585C44.6546 36.653 44.4684 36.7479 44.3037 36.8696L43.4497 36.1499C43.6681 35.8957 43.9546 35.6987 44.3091 35.5591C44.6636 35.4159 45.0575 35.3442 45.4907 35.3442C45.9634 35.3442 46.368 35.4266 46.7046 35.5913C47.0412 35.7524 47.2972 35.9888 47.4727 36.3003C47.6517 36.6082 47.7412 36.9806 47.7412 37.4175V41H46.5542V37.4658ZM45.0933 41.0806C44.4523 41.0806 43.9725 40.9391 43.6538 40.6562C43.3351 40.3698 43.1758 39.9365 43.1758 39.3564C43.1758 38.805 43.3369 38.3914 43.6592 38.1157C43.9814 37.84 44.4648 37.7021 45.1094 37.7021H46.6025L46.6777 38.7012H45.1147C44.8605 38.7012 44.6689 38.7549 44.54 38.8623C44.4147 38.9697 44.3521 39.1344 44.3521 39.3564C44.3521 39.5892 44.4344 39.7629 44.5991 39.8774C44.7638 39.9884 45.0127 40.0439 45.3457 40.0439C45.7539 40.0439 46.0565 39.9992 46.2534 39.9097C46.4539 39.8201 46.5542 39.6805 46.5542 39.4907L46.667 40.2856C46.6061 40.4611 46.4987 40.6079 46.3447 40.7261C46.1943 40.8442 46.0117 40.9338 45.7969 40.9946C45.582 41.0519 45.3475 41.0806 45.0933 41.0806ZM50.8027 41.0269C50.3337 41.0269 49.9899 40.9033 49.7715 40.6562C49.5531 40.4056 49.4438 40.0368 49.4438 39.5498V33.8027H50.7275V39.3726C50.7275 39.5086 50.7544 39.6143 50.8081 39.6895C50.8618 39.7611 50.9406 39.7969 51.0444 39.7969H51.4902V41.0269H50.8027ZM48.8691 35.4248H51.4902V36.5474H48.8691V35.4248ZM55.1909 41.0806C54.6717 41.0806 54.2277 40.9839 53.8589 40.7905C53.4901 40.5936 53.209 40.3089 53.0156 39.9365C52.8223 39.5605 52.7256 39.1076 52.7256 38.5776V37.8203C52.7256 37.2975 52.8223 36.8517 53.0156 36.4829C53.209 36.1105 53.4901 35.8276 53.8589 35.6343C54.2277 35.4409 54.6717 35.3442 55.1909 35.3442C55.4881 35.3442 55.7674 35.38 56.0288 35.4517C56.2938 35.5197 56.5301 35.62 56.7378 35.7524C56.9491 35.8849 57.1245 36.0461 57.2642 36.2358L56.394 37.0522C56.2472 36.8983 56.0754 36.7801 55.8784 36.6978C55.6815 36.6154 55.4756 36.5742 55.2607 36.5742C54.8633 36.5742 54.5553 36.6834 54.3369 36.9019C54.1185 37.1167 54.0093 37.4229 54.0093 37.8203V38.5776C54.0093 38.9858 54.1167 39.3009 54.3315 39.5229C54.55 39.7414 54.8597 39.8506 55.2607 39.8506C55.4792 39.8506 55.6868 39.8058 55.8838 39.7163C56.0807 39.6268 56.2508 39.4997 56.394 39.335L57.2642 40.2051C57.1209 40.3913 56.9437 40.5506 56.7324 40.6831C56.5247 40.812 56.2884 40.9105 56.0234 40.9785C55.762 41.0465 55.4845 41.0806 55.1909 41.0806ZM58.3652 33.1904H59.6489V41H58.3652V33.1904ZM61.6685 37.6216C61.6685 37.2886 61.5789 37.0308 61.3999 36.8481C61.2209 36.6655 60.9666 36.5742 60.6372 36.5742C60.3221 36.5742 60.0786 36.6584 59.9067 36.8267C59.7349 36.995 59.6489 37.2331 59.6489 37.541L59.5361 36.3862C59.7044 36.0496 59.9157 35.7918 60.1699 35.6128C60.4277 35.4338 60.7303 35.3442 61.0776 35.3442C61.672 35.3442 62.1322 35.543 62.458 35.9404C62.7874 36.3343 62.9521 36.8929 62.9521 37.6162V41H61.6685V37.6216Z" fill="white"/>
<path fill-rule="evenodd" clip-rule="evenodd" d="M43.9965 55.0475C40.9036 57.5507 36.9648 59.0501 32.6758 59.0501C28.3868 59.0501 24.448 57.5507 21.3551 55.0475H17.0171C20.8638 59.3454 26.4539 62.0501 32.6758 62.0501C38.8976 62.0501 44.4877 59.3454 48.3344 55.0475H43.9965ZM19.8148 28.4375C23.0831 25.1031 27.6379 23.0343 32.6758 23.0343C37.7137 23.0343 42.2684 25.1031 45.5368 28.4375H49.4837C45.651 23.3349 39.5488 20.0343 32.6758 20.0343C25.8028 20.0343 19.7006 23.3349 15.8679 28.4375H19.8148Z" fill="white"/>
<path d="M24.3427 74.806C24.3738 76.9852 26.9836 78.7134 29.4755 78.6735C31.4271 78.6438 32.7267 77.5372 33.1807 76.0118L34.2835 76.0118L34.2835 73.3319L33.1399 73.3319C32.6398 71.8211 31.3071 70.7545 29.3555 70.7842C26.8636 70.8201 24.3075 72.6268 24.3427 74.806Z" fill="white"/>
<path d="M34.3898 57.7738C34.3433 57.774 34.2974 57.763 34.256 57.7418L32.7727 56.9653L31.2893 57.7418C31.2412 57.7672 31.1869 57.7785 31.1326 57.7745C31.0783 57.7705 31.0263 57.7513 30.9823 57.7192C30.9384 57.6871 30.9044 57.6433 30.8841 57.5928C30.8638 57.5423 30.8581 57.4871 30.8676 57.4335L31.1585 55.796L29.9602 54.6326C29.9228 54.5953 29.8963 54.5485 29.8834 54.4973C29.8706 54.4461 29.872 54.3923 29.8874 54.3418C29.9043 54.2901 29.9353 54.2442 29.977 54.2092C30.0186 54.1742 30.0692 54.1517 30.123 54.144L31.7809 53.9026L32.5109 52.4105C32.5347 52.3614 32.5719 52.3199 32.6182 52.2909C32.6645 52.2619 32.718 52.2465 32.7727 52.2465C32.8273 52.2465 32.8809 52.2619 32.9272 52.2909C32.9734 52.3199 33.0106 52.3614 33.0345 52.4105L33.7732 53.8997L35.4311 54.1411C35.4849 54.1487 35.5355 54.1713 35.5771 54.2063C35.6188 54.2412 35.6498 54.2872 35.6667 54.3389C35.6821 54.3894 35.6835 54.4431 35.6707 54.4944C35.6578 54.5456 35.6313 54.5924 35.5939 54.6297L34.3956 55.7931L34.6865 57.4306C34.6969 57.4851 34.6914 57.5415 34.6708 57.593C34.6502 57.6446 34.6153 57.6891 34.5701 57.7215C34.5175 57.7584 34.4541 57.7768 34.3898 57.7738Z" fill="white"/>
<path fill-rule="evenodd" clip-rule="evenodd" d="M0 28.4375C4.90087 15.7412 16.9883 6.61852 31.2753 6.05652V9.05911C18.6732 9.60156 7.95933 17.4296 3.23953 28.4375H0ZM62.112 28.4375C58.4856 19.9797 51.3206 13.3992 42.4795 10.5581V7.42008C52.9832 10.4776 61.4475 18.3237 65.3515 28.4375H62.112ZM61.4709 55.0475C56.2757 65.7091 45.3336 73.0554 32.6757 73.0554V76.0554C47.0334 76.0554 59.3726 67.4135 64.7755 55.0475H61.4709ZM21.4716 74.2244V71.04C13.7604 68.1586 7.45799 62.3891 3.88057 55.0475H0.575953C4.50436 64.0387 12.0997 71.0611 21.4716 74.2244Z" fill="white"/>
<mask id="path-8-inside-1_169_331" fill="white">
<path d="M27.7001 6.44232L31.0552 6.44232C31.2696 5.84971 31.6542 5.28192 32.1901 4.90366C32.726 4.52541 33.3281 4.33629 33.9964 4.3363L38.1857 4.34584C38.3811 4.33954 38.5497 4.40732 38.6916 4.54917C38.8334 4.69102 38.9044 4.86282 38.9044 5.06456C38.9044 5.26631 38.8334 5.4381 38.6916 5.57995C38.5497 5.7218 38.3811 5.78957 38.1856 5.78326L33.7599 5.78317C33.5771 6.07947 33.4415 6.40415 33.3533 6.7572L38.1762 6.75729C38.3779 6.7573 38.5497 6.82823 38.6915 6.97008C38.8334 7.11193 38.9043 7.28373 38.9043 7.48547C38.9043 7.68722 38.835 7.85743 38.6963 7.99613C38.5576 8.13482 38.3873 8.20417 38.1856 8.20417L33.3532 8.21352C33.4352 8.56027 33.5676 8.8818 33.7504 9.17811L38.1761 9.1782C38.3779 9.17821 38.5496 9.24913 38.6915 9.39099C38.8333 9.53284 38.9043 9.70149 38.9043 9.89692C38.9043 10.0924 38.8333 10.261 38.6915 10.4029C38.5496 10.5447 38.3778 10.6156 38.1761 10.6156L33.9868 10.6439C33.3248 10.6376 32.7243 10.4437 32.1853 10.0623C31.6463 9.68085 31.2696 9.19383 31.0552 8.6012L27.7001 8.6012L27.7001 6.44232Z"/>
</mask>
<path d="M27.7001 6.44232L27.7001 3.44232L24.7001 3.44232L24.7001 6.44232L27.7001 6.44232ZM31.0552 6.44232L31.0552 9.44232L33.1603 9.44232L33.8764 7.46278L31.0552 6.44232ZM33.9964 4.3363L34.0032 1.3363L33.9964 1.3363L33.9964 4.3363ZM38.1857 4.34584L38.1788 7.34583L38.2306 7.34595L38.2823 7.34429L38.1857 4.34584ZM38.1856 5.78326L38.2824 2.78482L38.2341 2.78326L38.1857 2.78326L38.1856 5.78326ZM33.7599 5.78317L33.76 2.78317L32.0859 2.78313L31.2068 4.2078L33.7599 5.78317ZM33.3533 6.7572L30.4428 6.02953L29.5109 9.75712L33.3532 9.7572L33.3533 6.7572ZM38.1762 6.75729L38.1762 3.75729L38.1762 3.75729L38.1762 6.75729ZM38.1856 8.20417L38.1857 5.20416L38.1798 5.20417L38.1856 8.20417ZM33.3532 8.21352L33.3474 5.21353L29.5633 5.22086L30.4337 8.90355L33.3532 8.21352ZM33.7504 9.17811L31.1973 10.7534L32.0763 12.1781L33.7503 12.1781L33.7504 9.17811ZM38.1761 9.1782L38.1762 6.1782L38.1762 6.1782L38.1761 9.1782ZM38.1761 10.6156L38.1761 7.61562L38.166 7.61562L38.1558 7.61568L38.1761 10.6156ZM33.9868 10.6439L33.9581 13.6438L33.9826 13.644L34.007 13.6438L33.9868 10.6439ZM31.0552 8.6012L33.8764 7.58084L33.1604 5.6012L31.0552 5.6012L31.0552 8.6012ZM27.7001 8.6012L24.7001 8.6012L24.7001 11.6012L27.7001 11.6012L27.7001 8.6012ZM27.7001 9.44232L31.0552 9.44232L31.0552 3.44232L27.7001 3.44232L27.7001 9.44232ZM33.8764 7.46278C33.8941 7.4136 33.9168 7.37309 33.9351 7.3477C33.9531 7.32288 33.9528 7.33156 33.9201 7.3546L30.4601 2.45273C29.3352 3.24676 28.6176 4.36176 28.2341 5.42186L33.8764 7.46278ZM33.9201 7.3546C33.9337 7.34503 33.9413 7.34113 33.9431 7.34023C33.9447 7.33939 33.9442 7.33976 33.9426 7.34025C33.9411 7.34074 33.9427 7.34003 33.9493 7.33906C33.956 7.33805 33.9711 7.3363 33.9963 7.3363L33.9964 1.3363C32.7211 1.33627 31.5123 1.71008 30.4601 2.45273L33.9201 7.3546ZM33.9895 7.33629L38.1788 7.34583L38.1925 1.34585L34.0032 1.33631L33.9895 7.33629ZM38.2823 7.34429C37.9964 7.3535 37.6702 7.30824 37.34 7.17556C37.0116 7.04358 36.7556 6.85584 36.5702 6.67045L40.813 2.42789C40.102 1.71686 39.1372 1.31361 38.089 1.3474L38.2823 7.34429ZM36.5702 6.67045C36.3841 6.48433 36.2051 6.23666 36.0782 5.92916C35.9514 5.622 35.9044 5.32261 35.9044 5.06451L41.9044 5.06462C41.9044 4.07231 41.521 3.13595 40.813 2.42789L36.5702 6.67045ZM35.9044 5.06451C35.9044 4.8064 35.9514 4.50701 36.0782 4.19985C36.2052 3.89235 36.3842 3.64469 36.5703 3.45859L40.8129 7.70131C41.5209 6.9933 41.9043 6.05695 41.9044 5.06462L35.9044 5.06451ZM36.5703 3.45859C36.7557 3.2732 37.0117 3.08547 37.3401 2.95351C37.6702 2.82084 37.9965 2.77559 38.2824 2.78482L38.0888 8.7817C39.1371 8.81553 40.1018 8.41231 40.8129 7.70131L36.5703 3.45859ZM38.1857 2.78326L33.76 2.78317L33.7599 8.78317L38.1856 8.78326L38.1857 2.78326ZM31.2068 4.2078C30.8548 4.7783 30.6025 5.39083 30.4428 6.02953L36.2637 7.48486C36.2805 7.41746 36.2993 7.38065 36.313 7.35854L31.2068 4.2078ZM33.3532 9.7572L38.1761 9.75729L38.1762 3.75729L33.3533 3.7572L33.3532 9.7572ZM38.1761 9.75729C37.918 9.75729 37.6186 9.71027 37.3115 9.58345C37.004 9.45649 36.7563 9.27747 36.5702 9.09136L40.8129 4.8488C40.1049 4.14075 39.1685 3.75732 38.1762 3.75729L38.1761 9.75729ZM36.5702 9.09136C36.3841 8.90524 36.2051 8.65757 36.0781 8.35007C35.9513 8.0429 35.9043 7.74351 35.9043 7.48542L41.9043 7.48553C41.9043 6.49321 41.5209 5.55685 40.8129 4.8488L36.5702 9.09136ZM35.9043 7.48542C35.9043 7.23621 35.9486 6.94039 36.074 6.6325C36.2002 6.32292 36.3808 6.06891 36.575 5.87477L40.8175 10.1175C41.5366 9.3985 41.9043 8.45754 41.9043 7.48553L35.9043 7.48542ZM36.575 5.87477C36.7691 5.68062 37.0231 5.49998 37.3327 5.37386C37.6406 5.24843 37.9364 5.20416 38.1857 5.20417L38.1855 11.2042C39.1575 11.2042 40.0985 10.8365 40.8175 10.1175L36.575 5.87477ZM38.1798 5.20417L33.3474 5.21353L33.359 11.2135L38.1914 11.2042L38.1798 5.20417ZM30.4337 8.90355C30.5878 9.55569 30.8417 10.1771 31.1973 10.7534L36.3035 7.60284C36.2934 7.58648 36.2826 7.56485 36.2728 7.5235L30.4337 8.90355ZM33.7503 12.1781L38.1761 12.1782L38.1762 6.1782L33.7504 6.17811L33.7503 12.1781ZM38.176 12.1782C37.918 12.1782 37.6186 12.1312 37.3114 12.0044C37.0039 11.8774 36.7562 11.6984 36.5701 11.5123L40.8129 7.26971C40.1048 6.56166 39.1685 6.17822 38.1762 6.1782L38.176 12.1782ZM36.5701 11.5123C36.393 11.3351 36.2147 11.0938 36.0857 10.7868C35.9559 10.4783 35.9043 10.171 35.9043 9.89687L41.9043 9.89698C41.9043 8.88265 41.5007 7.95753 40.8129 7.26971L36.5701 11.5123ZM35.9043 9.89687C35.9043 9.62277 35.9559 9.3154 36.0857 9.00691C36.2148 8.69997 36.393 8.45866 36.5702 8.28149L40.8128 12.5242C41.5006 11.8364 41.9042 10.9113 41.9043 9.89698L35.9043 9.89687ZM36.5702 8.28149C36.7563 8.09538 37.004 7.91637 37.3115 7.78943C37.6186 7.66262 37.918 7.61561 38.1761 7.61562L38.176 13.6156C39.1683 13.6156 40.1047 13.2322 40.8128 12.5242L36.5702 8.28149ZM38.1558 7.61568L33.9665 7.64397L34.007 13.6438L38.1963 13.6155L38.1558 7.61568ZM34.0154 7.64404C33.9924 7.64382 33.9784 7.64209 33.9717 7.64102C33.9651 7.63997 33.9623 7.63907 33.9617 7.63886C33.961 7.63866 33.9585 7.63786 33.9531 7.63514C33.9476 7.63236 33.936 7.62601 33.9182 7.6134L30.4524 12.5112C31.4915 13.2465 32.6869 13.6316 33.9581 13.6438L34.0154 7.64404ZM33.9182 7.6134C33.8949 7.59692 33.8818 7.58528 33.8759 7.57968C33.8701 7.5742 33.8694 7.57281 33.8716 7.57555C33.8737 7.57836 33.8761 7.58202 33.878 7.58533C33.8797 7.58856 33.8789 7.58775 33.8764 7.58084L28.2341 9.62156C28.6671 10.8188 29.4386 11.7938 30.4524 12.5112L33.9182 7.6134ZM31.0552 5.6012L27.7001 5.6012L27.7001 11.6012L31.0552 11.6012L31.0552 5.6012ZM30.7001 8.6012L30.7001 6.44232L24.7001 6.44232L24.7001 8.6012L30.7001 8.6012Z" fill="white" mask="url(#path-8-inside-1_169_331)"/>
</svg>
