<svg width="33" height="31" viewBox="0 0 33 31" fill="none" xmlns="http://www.w3.org/2000/svg">
<path d="M6.1875 31V26.8667H20.8313C22.9969 26.8667 24.8789 26.1778 26.4773 24.8C28.0758 23.4222 28.875 21.7 28.875 19.6333C28.875 17.5667 28.0758 15.8444 26.4773 14.4667C24.8789 13.0889 22.9969 12.4 20.8313 12.4H7.8375L13.2 17.7733L10.3125 20.6667L0 10.3333L10.3125 0L13.2 2.89333L7.8375 8.26667H20.8313C24.1656 8.26667 27.0273 9.35167 29.4164 11.5217C31.8055 13.6917 33 16.3956 33 19.6333C33 22.8711 31.8055 25.575 29.4164 27.745C27.0273 29.915 24.1656 31 20.8313 31H6.1875Z" fill="#1C1B1F"/>
</svg>
